# xmcd CD database file
#
# Track frame offsets:
#	183
#	10668
#	23118
#	34943
#	47650
#	61545
#	73490
#	85538
#	98105
#	110098
#	123565
#	137173
#	151375
#	165373
#	177870
#	190165
#	203010
#	214363
#	228853
#	243183
#	259015
#	271080
#	283705
#
# Disc length: 3979 seconds
#
# Revision: 0
# Processed by: cddbd v1.5.2PL0 Copyright (c) Steve Scherf et al.
# Submitted via: CDex 1.70beta2
#
DISCID=380f8917
DTITLE=Caney - Perfidia
DYEAR=1994
DGENRE=Salsa
TTITLE0=Perfidia
TTITLE1=La Chiquita me gusto
TTITLE2=Nocturnal
TTITLE3=Ella, tu y yo
TTITLE4=Caminos de ayer
TTITLE5=Fe y adoracion
TTITLE6=De amor no se muere nadie
TTITLE7=Noche de luna
TTITLE8=Traba lengua
TTITLE9=Incertidumbre
TTITLE10=No puedo quererte mas
TTITLE11=Entre lirios y claveles
TTITLE12=Tumbame con un besito
TTITLE13=La guajira Micaela
TTITLE14=Juramento en las tinieblas
TTITLE15=Guajira Guantanamera
TTITLE16=Lamento Jarocho
TTITLE17=Sinceridad
TTITLE18=Tupi
TTITLE19=Lejos de tu querer
TTITLE20=Bruca Manigua
TTITLE21=La Masacre
TTITLE22=Rhumba Rhapsody
EXTD=YEAR: 1994
EXTT0=
EXTT1=
EXTT2=
EXTT3=
EXTT4=
EXTT5=
EXTT6=
EXTT7=
EXTT8=
EXTT9=
EXTT10=
EXTT11=
EXTT12=
EXTT13=
EXTT14=
EXTT15=
EXTT16=
EXTT17=
EXTT18=
EXTT19=
EXTT20=
EXTT21=
EXTT22=
PLAYORDER=
